<?xml version="1.0" encoding="utf-8"?>
<!-- Generator: Adobe Illustrator 15.0.0, SVG Export Plug-In . SVG Version: 6.00 Build 0)  -->
<!DOCTYPE svg PUBLIC "-//W3C//DTD SVG 1.1//EN" "http://www.w3.org/Graphics/SVG/1.1/DTD/svg11.dtd">
<svg version="1.1" id="Шар_1" xmlns="http://www.w3.org/2000/svg" xmlns:xlink="http://www.w3.org/1999/xlink" x="0px" y="0px"
	 width="12px" height="20px" viewBox="0 0 12 20" enable-background="new 0 0 12 20" xml:space="preserve">
<path fill="#888888" d="M3.763,10.064c2.542,2.542,5.042,5.04,7.538,7.538c0.72,0.719,0.72,0.843,0.014,1.551
	c-1.13,1.134-1.129,1.133-2.277-0.017c-2.801-2.802-5.603-5.603-8.403-8.405c-0.635-0.633-0.635-0.775-0.002-1.408
	C3.583,6.368,6.536,3.415,9.49,0.463c0.624-0.623,0.765-0.617,1.409,0.021c1.188,1.18,1.187,1.176-0.001,2.369
	c-2.251,2.261-4.5,4.522-6.749,6.788C4.03,9.761,3.921,9.89,3.763,10.064z"/>
</svg>
