<?xml version="1.0" encoding="utf-8"?>
<!-- Generator: Adobe Illustrator 16.0.3, SVG Export Plug-In . SVG Version: 6.00 Build 0)  -->
<!DOCTYPE svg PUBLIC "-//W3C//DTD SVG 1.1//EN" "http://www.w3.org/Graphics/SVG/1.1/DTD/svg11.dtd">
<svg version="1.1" id="Шар_1" xmlns="http://www.w3.org/2000/svg" xmlns:xlink="http://www.w3.org/1999/xlink" x="0px" y="0px"
	 width="12px" height="20px" viewBox="0 0 12 20" enable-background="new 0 0 12 20" xml:space="preserve">
<path fill-rule="evenodd" clip-rule="evenodd" fill="#888888" d="M8.237,9.936c-2.543-2.542-5.042-5.04-7.539-7.538
	c-0.719-0.719-0.719-0.843-0.013-1.551c1.13-1.133,1.129-1.132,2.277,0.017c2.801,2.802,5.603,5.603,8.403,8.405
	C12,9.903,12,10.045,11.367,10.678c-2.951,2.954-5.904,5.907-8.858,8.859C1.885,20.16,1.744,20.155,1.1,19.516
	c-1.189-1.18-1.187-1.176,0.001-2.369c2.251-2.261,4.5-4.523,6.749-6.788C7.969,10.239,8.078,10.11,8.237,9.936z"/>
</svg>
